<svg width="20" height="20" viewBox="0 0 20 20" fill="none" xmlns="http://www.w3.org/2000/svg">
<path d="M15.8334 14.1666H17.5001C18.0001 14.1666 18.3334 13.8333 18.3334 13.3333V10.8333C18.3334 10.0833 17.7501 9.41659 17.0834 9.24992C15.5834 8.83325 13.3334 8.33325 13.3334 8.33325C13.3334 8.33325 12.2501 7.16659 11.5001 6.41659C11.0834 6.08325 10.5834 5.83325 10.0001 5.83325H4.16675C3.66675 5.83325 3.25008 6.16659 3.00008 6.58325L1.83341 8.99992C1.72306 9.32177 1.66675 9.65967 1.66675 9.99992V13.3333C1.66675 13.8333 2.00008 14.1666 2.50008 14.1666H4.16675M15.8334 14.1666C15.8334 15.0871 15.0872 15.8333 14.1667 15.8333C13.2463 15.8333 12.5001 15.0871 12.5001 14.1666M15.8334 14.1666C15.8334 13.2461 15.0872 12.4999 14.1667 12.4999C13.2463 12.4999 12.5001 13.2461 12.5001 14.1666M4.16675 14.1666C4.16675 15.0871 4.91294 15.8333 5.83341 15.8333C6.75389 15.8333 7.50008 15.0871 7.50008 14.1666M4.16675 14.1666C4.16675 13.2461 4.91294 12.4999 5.83341 12.4999C6.75389 12.4999 7.50008 13.2461 7.50008 14.1666M7.50008 14.1666H12.5001" stroke="black" stroke-width="1.25" stroke-linecap="round" stroke-linejoin="round"/>
</svg>
